<?xml version="1.0" encoding="UTF-8" standalone="no"?>
<!-- Created with Inkscape (http://www.inkscape.org/) -->

<svg
   version="1.1"
   id="svg9"
   width="288.64001"
   height="160"
   viewBox="0 0 288.64001 160"
   xmlns:xlink="http://www.w3.org/1999/xlink"
   xmlns="http://www.w3.org/2000/svg"
   xmlns:svg="http://www.w3.org/2000/svg">
  <defs
     id="defs13" />
  <g
     id="g15">
    <image
       width="288.64001"
       height="160"
       preserveAspectRatio="none"
       xlink:href="logo.png"
       id="image17" />
    <g
       id="g207">
      <path
         style="fill:#f29863;stroke-width:0.32"
         d="m 134.8,155.42851 c -1.804,-0.90979 -3.28,-1.74236 -3.28,-1.85015 0,-0.1078 1.512,0.57965 3.36,1.52766 1.848,0.94802 3.36,1.78898 3.36,1.86882 0,0.19964 0.20299,0.29088 -3.44,-1.54633 z m 15.60001,1.53953 c 0,-0.088 1.008,-0.66761 2.24,-1.28804 1.232,-0.62043 2.24,-1.05604 2.24,-0.96804 0,0.088 -1.008,0.66761 -2.24,1.28804 -1.232,0.62043 -2.24,1.05604 -2.24,0.96804 z M 173.76491,144.72 c 0.003,-0.3504 0.0929,-0.4262 0.24,-0.20251 0.16224,0.24672 0.85177,0.0624 2.22523,-0.59496 l 1.99014,-0.95245 -0.48563,-1.00504 c -0.43227,-0.89462 -0.43238,-0.93472 -9.6e-4,-0.36504 0.26652,0.352 0.6362,0.81683 0.82152,1.03294 0.25395,0.29617 -0.21425,0.67052 -1.9011,1.52 -2.54511,1.2817 -2.89597,1.35056 -2.88912,0.56706 z m 0.3647,-1.04 c 0,-0.264 0.26568,-1.2 0.5904,-2.08 0.32472,-0.88 0.59039,-1.384 0.59039,-1.12 0,0.264 -0.26567,1.2 -0.59039,2.08 -0.32472,0.88 -0.5904,1.384 -0.5904,1.12 z m 1.5504,-5.13889 c 0,-0.18638 0.144,-0.24988 0.32,-0.14111 0.176,0.10877 0.32,0.26127 0.32,0.33889 0,0.0776 -0.144,0.14111 -0.32,0.14111 -0.176,0 -0.32,-0.1525 -0.32,-0.33889 z M 187.28535,128.56 c -4.46847,-8.85557 -4.47477,-8.86879 -4.00397,-8.4 0.17675,0.176 2.01716,3.704 4.0898,7.84 2.07264,4.136 3.90284,7.69419 4.0671,7.90709 0.22148,0.28705 2.19273,-0.56063 7.62753,-3.28 4.03088,-2.0169 7.43807,-3.65937 7.57153,-3.64992 0.2763,0.0196 -14.66951,7.6193 -15.0361,7.64566 -0.13133,0.009 -2.07347,-3.61883 -4.31589,-8.06283 z m -97.365347,4.56 c -1.672,-0.86212 -2.929123,-1.5748 -2.793606,-1.58374 0.340115,-0.0224 5.993606,2.83274 5.993606,3.02695 0,0.21749 0.165802,0.29227 -3.2,-1.44321 z m -6.898839,-3.37765 c -0.585699,-0.46924 -0.575488,-0.47591 0.178839,-0.11666 0.97953,0.4665 1.161069,0.61431 0.754496,0.61431 -0.171696,0 -0.591696,-0.22394 -0.933335,-0.49765 z m -2.56,-1.28 c -0.585699,-0.46924 -0.575488,-0.47591 0.178839,-0.11666 0.979529,0.4665 1.161069,0.61431 0.754496,0.61431 -0.171696,0 -0.591696,-0.22394 -0.933335,-0.49765 z m 126.605506,0.38099 c 0.0733,-0.0642 0.49334,-0.2881 0.93334,-0.49765 0.75432,-0.35925 0.76453,-0.35258 0.17884,0.11666 -0.50976,0.4084 -1.55132,0.76521 -1.11218,0.38099 z M 76.480003,126.56 c -1.496,-0.77432 -2.576,-1.40786 -2.4,-1.40786 0.176,0 1.544,0.63354 3.04,1.40786 1.496,0.77432 2.576,1.40786 2.4,1.40786 -0.176,0 -1.544,-0.63354 -3.04,-1.40786 z m 135.040007,0 c 1.496,-0.77432 2.864,-1.40786 3.04,-1.40786 0.176,0 -0.904,0.63354 -2.4,1.40786 -1.496,0.77432 -2.864,1.40786 -3.04,1.40786 -0.176,0 0.904,-0.63354 2.4,-1.40786 z M 121.86,122.9814 c 0.231,-0.0924 0.50701,-0.0811 0.61334,0.0252 0.10633,0.10634 -0.0827,0.18197 -0.42,0.16807 -0.37279,-0.0154 -0.44861,-0.0912 -0.19334,-0.19333 z m -7.53626,-2.74271 c -2.85794,-1.25006 -5.13923,-2.32986 -5.06954,-2.39955 0.0697,-0.0697 2.29642,0.8233 4.94827,1.98443 2.65186,1.16113 5.14915,2.24271 5.54955,2.4035 0.40039,0.1608 0.51198,0.29058 0.24798,0.28841 -0.264,-0.002 -2.81831,-1.02673 -5.67626,-2.27679 z m 51.78153,-0.74536 c 0.0154,-0.37278 0.0912,-0.4486 0.19333,-0.19333 0.0924,0.231 0.0811,0.507 -0.0252,0.61333 -0.10633,0.10634 -0.18196,-0.0827 -0.16807,-0.42 z m 16.42959,-0.5996 c -0.10861,-0.43273 0.0334,-1.40395 0.31582,-2.16 0.28224,-0.75555 0.40994,-0.94173 0.28379,-0.41373 -0.12615,0.528 -0.228,1.5 -0.22632,2.16 0.004,1.39684 -0.0982,1.50964 -0.37329,0.41373 z M 56.320002,116.48 c -0.616,-0.33724 -0.976,-0.61317 -0.8,-0.61317 0.176,0 0.824,0.27593 1.44,0.61317 0.616,0.33724 0.976,0.61317 0.8,0.61317 -0.176,0 -0.824,-0.27593 -1.44,-0.61317 z m 174.426668,0.52544 c 0.44019,-0.37819 6.37334,-3.27253 6.37334,-3.10907 0,0.2002 -5.90647,3.22363 -6.29757,3.22363 -0.115,0 -0.1491,-0.0516 -0.0758,-0.11456 z m -68.84133,-5.99285 c -0.19645,-0.36707 -0.29691,-0.72768 -0.22324,-0.80135 0.0737,-0.0737 0.29825,0.22666 0.49906,0.66741 0.44099,0.96785 0.22627,1.07212 -0.27582,0.13394 z M 160.80001,108.8 c -0.27304,-0.528 -0.42444,-0.96 -0.33644,-0.96 0.088,0 0.3834,0.432 0.65644,0.96 0.27304,0.528 0.42443,0.96 0.33643,0.96 -0.088,0 -0.38339,-0.432 -0.65643,-0.96 z m -1.25943,-2.4662 c -0.17366,-0.45606 -0.1369,-0.49282 0.17913,-0.17913 0.2187,0.21706 0.31702,0.47527 0.21849,0.5738 -0.0985,0.0985 -0.27745,-0.0791 -0.39762,-0.39467 z M 186.6087,105.28 c 0,-0.264 0.19409,-0.984 0.43131,-1.6 0.23722,-0.616 0.43131,-0.904 0.43131,-0.64 0,0.264 -0.19409,0.984 -0.43131,1.6 -0.23722,0.616 -0.43131,0.904 -0.43131,0.64 z M 169.92867,94.417296 C 167.31472,89.197085 167.09971,88.64 167.69889,88.64 c 0.18639,0 0.25409,0.13721 0.15044,0.304912 -0.24268,0.392672 4.47455,9.829712 5.00129,10.005293 0.29941,0.0998 0.30493,0.190061 0.0223,0.364742 -0.25172,0.155571 -1.22266,-1.459558 -2.94424,-4.897651 z m -15.86182,1.241414 c -0.11601,-0.187708 -0.1423,-0.40992 -0.0584,-0.493801 0.0839,-0.08388 0.23778,0.0697 0.342,0.341289 0.21638,0.563876 0.032,0.66306 -0.28358,0.152512 z M 190.7687,92.48 c 0,-0.264 0.19409,-0.984 0.43131,-1.6 0.23722,-0.616 0.43131,-0.904 0.43131,-0.64 0,0.264 -0.19409,0.984 -0.43131,1.6 -0.23722,0.616 -0.43131,0.904 -0.43131,0.64 z m -13.96869,-6.4 c -0.10878,-0.176 -0.0453,-0.32 0.14111,-0.32 0.18639,0 0.33889,0.144 0.33889,0.32 0,0.176 -0.0635,0.32 -0.14112,0.32 -0.0776,0 -0.23011,-0.144 -0.33888,-0.32 z M 135.10239,84 c 0.007,-0.528 0.0782,-0.705261 0.15937,-0.39391 0.0811,0.31135 0.0758,0.74335 -0.0119,0.96 C 135.16223,84.782739 135.09585,84.528 135.10237,84 Z m 18.24,0 c 0.007,-0.528 0.0782,-0.705261 0.15937,-0.39391 0.0811,0.31135 0.0758,0.74335 -0.0119,0.96 C 153.40223,84.782739 153.33585,84.528 153.34237,84 Z m 10.43762,-0.698595 c 0.23099,-0.09244 0.507,-0.08107 0.61333,0.02525 0.10633,0.106333 -0.0827,0.181965 -0.42,0.16807 -0.37278,-0.01536 -0.44861,-0.09118 -0.19333,-0.193331 z M 135.42239,80.8 c 0.007,-0.528 0.0782,-0.705261 0.15937,-0.39391 0.0811,0.31135 0.0758,0.74335 -0.0119,0.96 -0.0877,0.216649 -0.15404,-0.03809 -0.14752,-0.56609 z m 17.6,0 c 0.007,-0.528 0.0782,-0.705261 0.15937,-0.39391 0.0811,0.31135 0.0758,0.74335 -0.0119,0.96 -0.0877,0.216649 -0.15404,-0.03809 -0.14752,-0.56609 z m -17.28,-3.2 c 0.007,-0.528 0.0782,-0.705261 0.15937,-0.39391 0.0811,0.31135 0.0758,0.74335 -0.0119,0.96 -0.0877,0.216649 -0.15404,-0.03809 -0.14752,-0.56609 z m 16.96,0 c 0.007,-0.528 0.0782,-0.705261 0.15937,-0.39391 0.0811,0.31135 0.0758,0.74335 -0.0119,0.96 -0.0877,0.216649 -0.15404,-0.03809 -0.14752,-0.56609 z m -16.64,-3.2 c 0.007,-0.528 0.0782,-0.705261 0.15937,-0.39391 0.0811,0.31135 0.0758,0.74335 -0.0119,0.96 -0.0877,0.216649 -0.15404,-0.03809 -0.14752,-0.56609 z m 16.32,0 c 0.007,-0.528 0.0782,-0.705261 0.15937,-0.39391 0.0811,0.31135 0.0758,0.74335 -0.0119,0.96 -0.0877,0.216649 -0.15404,-0.03809 -0.14752,-0.56609 z m -16.01186,-3.04 c 0,-0.44 0.0726,-0.62 0.1614,-0.4 0.0888,0.22 0.0888,0.58 0,0.8 -0.0888,0.22 -0.1614,0.04 -0.1614,-0.4 z m 15.68,0 c 0,-0.44 0.0726,-0.62 0.1614,-0.4 0.0888,0.22 0.0888,0.58 0,0.8 -0.0888,0.22 -0.1614,0.04 -0.1614,-0.4 z m -15.36,-3.2 c 0,-0.44 0.0726,-0.62 0.1614,-0.4 0.0888,0.22 0.0888,0.58 0,0.8 -0.0888,0.22 -0.1614,0.04 -0.1614,-0.4 z m 15.04,0 c 0,-0.44 0.0726,-0.62 0.1614,-0.4 0.0888,0.22 0.0888,0.58 0,0.8 -0.0888,0.22 -0.1614,0.04 -0.1614,-0.4 z m -14.72,-3.2 c 0,-0.44 0.0726,-0.62 0.1614,-0.4 0.0888,0.22 0.0888,0.58 0,0.8 -0.0888,0.22 -0.1614,0.04 -0.1614,-0.4 z m 14.4,0 c 0,-0.44 0.0726,-0.62 0.1614,-0.4 0.0888,0.22 0.0888,0.58 0,0.8 -0.0888,0.22 -0.1614,0.04 -0.1614,-0.4 z m -14.08,-3.2 c 0,-0.44 0.0726,-0.62 0.1614,-0.4 0.0888,0.22 0.0888,0.58 0,0.8 -0.0888,0.22 -0.1614,0.04 -0.1614,-0.4 z m 13.76,0 c 0,-0.44 0.0726,-0.62 0.1614,-0.4 0.0888,0.22 0.0888,0.58 0,0.8 -0.0888,0.22 -0.1614,0.04 -0.1614,-0.4 z m -13.44,-3.2 c 0,-0.44 0.0726,-0.62 0.1614,-0.4 0.0888,0.22 0.0888,0.58 0,0.8 -0.0888,0.22 -0.1614,0.04 -0.1614,-0.4 z m 13.12,0 c 0,-0.44 0.0726,-0.62 0.1614,-0.4 0.0888,0.22 0.0888,0.58 0,0.8 -0.0888,0.22 -0.1614,0.04 -0.1614,-0.4 z m -12.8,-3.2 c 0,-0.44 0.0726,-0.62 0.1614,-0.4 0.0888,0.22 0.0888,0.58 0,0.8 -0.0888,0.22 -0.1614,0.04 -0.1614,-0.4 z m 12.48,0 c 0,-0.44 0.0726,-0.62 0.1614,-0.4 0.0888,0.22 0.0888,0.58 0,0.8 -0.0888,0.22 -0.1614,0.04 -0.1614,-0.4 z m -12.18526,-3.066666 c 0.0154,-0.372784 0.0912,-0.448608 0.19333,-0.193334 0.0924,0.230998 0.0811,0.506998 -0.0252,0.613334 -0.10633,0.106333 -0.18196,-0.08267 -0.16807,-0.42 z m 11.84,0 c 0.0154,-0.372784 0.0912,-0.448608 0.19333,-0.193334 0.0924,0.230998 0.0811,0.506998 -0.0252,0.613334 -0.10633,0.106333 -0.18196,-0.08267 -0.16807,-0.42 z m -11.52,-3.2 c 0.0154,-0.372784 0.0912,-0.448608 0.19333,-0.193334 0.0924,0.230998 0.0811,0.506998 -0.0252,0.613334 -0.10633,0.106333 -0.18196,-0.08267 -0.16807,-0.42 z m 11.2,0 c 0.0154,-0.372784 0.0912,-0.448608 0.19333,-0.193334 0.0924,0.230998 0.0811,0.506998 -0.0252,0.613334 -0.10633,0.106333 -0.18196,-0.08267 -0.16807,-0.42 z m -10.88,-3.2 c 0.0154,-0.372784 0.0912,-0.448608 0.19333,-0.193334 0.0924,0.230998 0.0811,0.506998 -0.0252,0.613334 -0.10633,0.106333 -0.18196,-0.08267 -0.16807,-0.42 z m 10.56,0 c 0.0154,-0.372784 0.0912,-0.448608 0.19333,-0.193334 0.0924,0.230998 0.0811,0.506998 -0.0252,0.613334 -0.10633,0.106333 -0.18196,-0.08267 -0.16807,-0.42 z M 0.80000003,44.8 C 0.69122604,44.624 0.75472761,44.48 0.94111459,44.48 1.1275016,44.48 1.28,44.624 1.28,44.8 c 0,0.176 -0.063502,0.32 -0.1411145,0.32 -0.077613,0 -0.23011148,-0.144 -0.33888547,-0.32 z m 286.56000997,0 c 0,-0.176 0.1525,-0.32 0.33889,-0.32 0.18638,0 0.24988,0.144 0.14111,0.32 -0.10877,0.176 -0.26127,0.32 -0.33889,0.32 -0.0776,0 -0.14111,-0.144 -0.14111,-0.32 z M 139.22527,42.693334 c 0.0154,-0.372784 0.0912,-0.448608 0.19333,-0.193334 0.0924,0.230998 0.0811,0.506998 -0.0252,0.613334 -0.10633,0.106333 -0.18196,-0.08267 -0.16807,-0.42 z m 9.92,0 c 0.0154,-0.372784 0.0912,-0.448608 0.19333,-0.193334 0.0924,0.230998 0.0811,0.506998 -0.0252,0.613334 -0.10633,0.106333 -0.18196,-0.08267 -0.16807,-0.42 z M 143.94,0.10140351 c 0.231,-0.0924386 0.50701,-0.08107018 0.61334,0.0252632 0.10633,0.10633333 -0.0827,0.18196491 -0.42,0.16807017 C 143.76056,0.279382 143.68473,0.20355596 143.94,0.10140351 Z"
         id="path221" />
      <path
         style="fill:#9d9d9d;stroke-width:0.32"
         d="m 157.93282,158.0961 c -0.78685,-0.9438 -0.81044,-1.01423 -0.13937,-0.4161 1.0517,0.93739 1.15195,0.91494 1.42914,-0.32 0.1284,-0.572 0.28625,-0.88875 0.3508,-0.70389 0.0645,0.18486 -0.0651,0.8401 -0.28801,1.4561 l -0.40537,1.11999 z m -32.74157,-5.1591 0.1591,-3.86299 -11.31517,-5.65491 -11.31518,-5.6549 v -11.4464 -11.44639 l 1.04,0.43868 c 0.572,0.24128 2.00863,0.85521 3.1925,1.3643 l 2.1525,0.92561 0.0875,9.52396 0.0875,9.52397 10.79818,5.18186 c 5.939,2.85001 10.691,5.27841 10.56,5.39643 -0.13099,0.11801 -1.21938,0.5352 -2.41862,0.92707 -1.19924,0.39187 -2.12975,0.76318 -2.0678,0.82513 0.062,0.0619 1.18166,-0.16234 2.48824,-0.49842 1.30659,-0.33608 2.40087,-0.58157 2.43174,-0.54553 0.0309,0.036 0.10835,1.72153 0.17219,3.74553 l 0.11607,3.68 -2.56,0.69375 c -4.09504,1.10973 -3.79354,1.37012 -3.60875,-3.11675 z m 36.43303,-2.70926 c -0.0133,-0.18274 0.4688,-1.76674 1.07145,-3.52 0.60265,-1.75326 1.10665,-3.03822 1.12,-2.85548 0.0133,0.18274 -0.4688,1.76674 -1.07145,3.52 -0.60265,1.75326 -1.10665,3.03822 -1.12,2.85548 z m 19.82471,-11.20069 c -2.08289,-4.06608 -3.43699,-6.38003 -3.59137,-6.13707 -0.1363,0.21451 -0.24781,0.24602 -0.24781,0.07 0,-0.176 0.12912,-0.524 0.28695,-0.77334 0.20675,-0.32664 1.23914,1.44939 3.69385,6.35458 1.87381,3.74435 3.36079,6.85403 3.30442,6.9104 -0.0564,0.0564 -1.60709,-2.83469 -3.44604,-6.42459 z M 176.20902,137.28 c 0.11133,-0.44 0.40001,-1.304 0.64152,-1.92 0.37576,-0.95843 0.41284,-0.98661 0.25698,-0.19534 -0.10017,0.50857 -0.38885,1.37257 -0.64152,1.92 -0.34556,0.74869 -0.40924,0.7971 -0.25698,0.19534 z m -10.42474,0.14774 c -0.0133,-0.18274 0.4688,-1.76674 1.07145,-3.52 0.60265,-1.75326 1.10665,-3.03822 1.12,-2.85548 0.0133,0.18274 -0.4688,1.76674 -1.07145,3.52 -0.60265,1.75326 -1.10665,3.03822 -1.12,2.85548 z M 67.520002,100.15376 c 0,-15.308566 0.108,-27.83409 0.24,-27.834496 0.132,-3.2e-4 1.571581,0.395597 3.199072,0.88 l 2.959073,0.880736 -0.0066,25.44 -0.0066,25.44 -1.672458,0.79196 c -0.919853,0.43558 -2.356458,1.11677 -3.192458,1.51376 l -1.52,0.7218 v -27.83376 z m 150.335358,26.31856 -3.10465,-1.51232 -0.0144,-25.44 -0.0144,-25.44 3.06053,-0.911878 c 1.68329,-0.501533 3.12367,-0.848733 3.20084,-0.771556 0.0772,0.07718 0.10353,12.616064 0.0586,27.864194 l -0.0818,27.72387 -3.10464,-1.51231 z m -47.91009,-1.85627 c -0.0139,-0.18917 0.33346,-1.39863 0.77189,-2.68768 l 0.79715,-2.34372 -1.47465,-2.91233 c -8.26265,-16.31813 -12.44337,-24.391229 -12.73281,-24.587421 -0.24017,-0.16279 -0.22961,-0.236605 0.0343,-0.24 0.35272,-0.0045 1.63012,2.399098 11.1116,20.908341 l 3.41842,6.67325 -0.95033,2.76675 c -0.52267,1.52172 -0.96169,2.61198 -0.97558,2.42281 z M 122.24,117.61154 v -4.62847 l -1.16738,-0.79326 c -0.64206,-0.43629 -5.03406,-2.47764 -9.76,-4.53634 L 102.72,103.91038 V 93.55519 c 0,-5.695353 0.108,-10.352265 0.24,-10.348694 0.132,0.0036 1.536,0.413638 3.12,0.911258 l 2.88,0.904761 0.0851,8.652951 0.0851,8.652954 2.63492,1.12331 c 1.44921,0.61782 5.7971,2.45987 9.66199,4.09343 3.86489,1.63357 6.88889,3.01596 6.72,3.07197 -0.18384,0.061 -0.26897,2.06403 -0.21212,4.99153 l 0.0949,4.88969 -2.674,0.87082 c -1.4707,0.47896 -2.77342,0.87083 -2.89494,0.87083 -0.12152,0 -0.22095,-2.08281 -0.22095,-4.62846 z m 52.07902,-14.62912 c -0.83655,-1.60991 -1.45765,-2.990455 -1.38022,-3.067876 0.0774,-0.07742 0.74338,1.062136 1.4799,2.532346 0.73653,1.47021 1.46563,2.72111 1.62022,2.77978 0.34238,0.12992 0.37614,0.6954 0.0411,0.68809 -0.132,-0.003 -0.92445,-1.32243 -1.76099,-2.93234 z m 3.94526,-3.954676 c -0.0133,-0.182742 0.4688,-1.766742 1.07145,-3.52 0.60265,-1.753261 1.10665,-3.038227 1.12,-2.855488 0.0134,0.182742 -0.4688,1.766742 -1.07145,3.52 -0.60265,1.753261 -1.10665,3.038227 -1.12,2.855488 z M 182.43878,86.08 c -0.005,-0.264 0.1879,-0.912 0.42967,-1.44 0.56589,-1.235859 0.57419,-0.661024 0.0115,0.8 -0.23722,0.616 -0.43577,0.904 -0.44122,0.64 z M 73.920003,38.4 v -3.2 h 33.148127 33.14813 l -0.17488,1.2 c -0.0962,0.66 -0.26698,2.1 -0.37954,3.2 l -0.20467,2 H 106.68858 73.920003 Z m 75.058167,1.2 c -0.11256,-1.1 -0.28336,-2.54 -0.37954,-3.2 l -0.17488,-1.2 h 31.54813 31.54813 v 3.2 3.2 h -31.16858 -31.16859 z"
         id="path219" />
      <path
         style="fill:#a29999;stroke-width:0.32"
         d="m 156.67757,156.49189 c -1.46159,-1.52164 -1.77408,-2.02394 -1.54282,-2.48 0.15949,-0.31454 2.76878,-8.23614 5.79841,-17.60356 l 5.50842,-17.03167 -6.59054,-12.94342 c -3.62479,-7.118878 -6.47815,-13.008994 -6.34079,-13.089141 0.41813,-0.243965 3.99313,-1.228867 4.07641,-1.123037 0.0681,0.08656 8.33475,16.317948 12.44964,24.444648 l 1.47128,2.90572 -6.30078,19.41428 C 161.74137,149.66357 158.817,158.4 158.70819,158.4 c -0.1088,0 -1.02258,-0.85865 -2.03062,-1.90811 z M 131.26514,150.8 c -0.0358,-1.628 -0.10114,-2.95753 -0.14514,-2.95452 -0.044,0.003 -1.15451,0.28451 -2.4678,0.62553 -1.31329,0.34103 -2.43849,0.56936 -2.50044,0.50741 -0.0619,-0.0619 0.86856,-0.43461 2.0678,-0.82812 1.19924,-0.39352 2.35451,-0.85303 2.56726,-1.02114 0.57716,-0.45605 0.77949,0.75615 0.65274,3.91084 l -0.10929,2.72 z m -6.08275,-0.88 c 0.007,-0.528 0.0782,-0.70526 0.15937,-0.39391 0.0811,0.31135 0.0758,0.74335 -0.0119,0.96 -0.0877,0.21665 -0.15404,-0.0381 -0.14752,-0.56609 z m 57.53762,-5.43961 c -0.792,-0.42387 -2.09469,-0.9952 -2.89487,-1.26962 -1.30189,-0.44647 -1.5762,-0.72563 -2.60873,-2.65485 l -1.15387,-2.15592 0.96854,-2.97352 c 0.5327,-1.63544 1.00711,-2.93144 1.05424,-2.88 0.41151,0.44911 6.52261,12.73006 6.32911,12.71906 -0.13993,-0.008 -0.90242,-0.36127 -1.69442,-0.78515 z M 121.99076,117.84 l 0.0708,-5.04 0.0978,4.72 c 0.0538,2.596 0.19337,4.72 0.31019,4.72 0.11681,0 1.41568,-0.39187 2.88638,-0.87083 l 2.674,-0.87082 -0.0949,-4.88964 c -0.0522,-2.6893 0.013,-4.88942 0.14505,-4.88917 0.132,2.5e-4 0.24,2.29258 0.24,5.09407 v 5.09361 l -2.96079,0.98639 c -1.62843,0.54251 -3.06843,0.98639 -3.2,0.98639 -0.13156,0 -0.20736,-2.268 -0.16845,-5.04 z m 52.48289,-15.28 c -0.74194,-1.496 -1.51166,-2.72 -1.7105,-2.72 -0.24755,0 -0.26004,-0.126093 -0.0396,-0.4 0.17704,-0.22 1.29265,-3.360406 2.47914,-6.978685 l 2.15724,-6.578685 2.75503,-0.839664 c 1.51527,-0.461814 2.77843,-0.813404 2.80702,-0.781315 0.11862,0.133139 -6.75963,21.018349 -6.92209,21.018349 -0.0975,0 -0.78428,-1.224 -1.52622,-2.72 z"
         id="path217" />
      <path
         style="fill:#f68628;stroke-width:0.32"
         d="m 51.667167,113.84 c -0.08401,-0.22 -0.11546,-10.768 -0.06988,-23.44 l 0.08286,-23.04 0.159926,23.440038 c 0.08796,12.892022 0.119408,23.440022 0.06988,23.440002 -0.04953,-2e-5 -0.158781,-0.18004 -0.242793,-0.40004 z"
         id="path215" />
      <path
         style="fill:#f77c0a;stroke-width:0.32"
         d="m 122.4,82.517014 c -6.688,-2.089744 -14.536,-4.535561 -17.44,-5.435145 -2.904,-0.899584 -11.039997,-3.429751 -18.079997,-5.622589 -7.04,-2.192842 -14.384,-4.472618 -16.320001,-5.066173 -1.936,-0.593555 -10.72,-3.320598 -19.52,-6.060096 C 42.240001,57.59351 27.516001,53.017882 18.320001,50.164944 9.1240003,47.312006 1.6000001,44.897949 1.6000001,44.800371 1.6000001,44.70279 13.516,40.919299 28.080001,36.392605 42.644001,31.865915 67.304002,24.19769 82.880003,19.352107 117.18374,8.6804566 143.00152,0.66012899 143.75996,0.43966662 144.25014,0.29718281 154.1783,3.3170829 194.40001,15.843115 c 5.28,1.644322 17.016,5.293679 26.08,8.109681 45.79801,14.228516 59.05386,18.345559 62.64,19.454916 2.156,0.66695 3.92,1.292678 3.92,1.390512 0,0.174589 -33.8487,10.746301 -96.8,30.232826 -2.64,0.817209 -6.096,1.897494 -7.68,2.40063 -1.584,0.503133 -6.408,2.008387 -10.72,3.345008 -4.312,1.336621 -10.072,3.126938 -12.8,3.97848 -2.728,0.851542 -5.02746,1.490528 -5.10992,1.419968 -0.0824,-0.07056 -1.16834,-10.092832 -2.4131,-22.271712 L 149.2538,41.76 l 31.13311,-0.08157 31.1331,-0.08158 V 38.314006 35.031168 L 207.36342,31.915583 203.20683,28.8 H 142.72 82.233177 l -4.156589,3.115583 -4.156585,3.115585 v 3.282912 3.282915 l 32.733097,0.0815 32.7331,0.0815 -2.26318,22.143424 c -1.24476,12.17888 -2.33065,22.204106 -2.4131,22.278275 -0.0825,0.07417 -5.62192,-1.574937 -12.30992,-3.664685 z"
         id="path213" />
      <path
         style="fill:#f06b1d;stroke-width:0.32"
         d="m 137.84526,156.55089 -5.99475,-3.11089 -0.0101,-2.88 c -0.006,-1.584 -0.11651,-3.04716 -0.2465,-3.25145 -0.12999,-0.2043 -5.20378,-2.75455 -11.2751,-5.66723 l -11.03877,-5.29576 -0.0849,-9.11502 -0.0849,-9.11502 3.28488,1.38351 c 1.80668,0.76093 4.13079,1.76093 5.16469,2.22224 1.0339,0.4613 2.1139,0.84383 2.4,0.85007 0.2861,0.006 0.86799,0.20404 1.29308,0.43957 0.68091,0.37726 1.11894,0.31421 3.68,-0.52964 1.59891,-0.52683 3.0871,-1.18416 3.3071,-1.46073 0.28054,-0.35268 0.4,-1.96053 0.4,-5.38356 0,-4.41108 -0.0577,-4.92092 -0.60027,-5.29884 -0.33015,-0.22997 -4.71974,-2.14614 -9.75466,-4.25814 l -9.15439,-3.84 -0.005,-8.4 c -0.003,-4.62 0.10267,-8.403466 0.23467,-8.407699 0.132,-0.0042 8.04952,2.407763 17.59449,5.36 l 17.35448,5.367699 0.006,31.76 c 0.003,17.468 -0.10249,31.7559 -0.23449,31.75089 -0.132,-0.005 -2.93764,-1.40901 -6.23475,-3.12 z m -54.725257,-27.12985 -9.2,-4.60744 V 99.556602 74.299603 l 3.44,1.075939 c 1.892,0.59177 6.176,1.923226 9.52,2.958794 l 6.08,1.882851 0.08182,26.931413 c 0.06517,21.45105 5.1e-5,26.92616 -0.32,26.90564 -0.220999,-0.0142 -4.541818,-2.0991 -9.601818,-4.6332 z m -28.480001,-14.08069 -2.8,-1.42725 V 90.68231 c 0,-18.444956 0.08241,-23.202329 0.4,-23.092665 0.22,0.07596 1.58728,0.487373 3.0384,0.914237 l 2.6384,0.776118 0.0016,23.76 c 9.6e-4,13.068 -0.1064,23.75271 -0.2384,23.7438 -0.132,-0.009 -1.5,-0.65846 -3.04,-1.44345 z"
         id="path211" />
      <path
         style="fill:#ea5a30;stroke-width:0.32"
         d="M 144.32,127.91384 V 96.14769 l 4.08001,-1.234285 c 2.244,-0.678855 4.21395,-1.252083 4.37767,-1.273843 0.35945,-0.04777 0.23384,-0.282029 7.48152,13.952828 3.20144,6.28782 5.81952,11.68782 5.81794,12 -0.002,0.31219 -2.5031,8.27161 -5.55893,17.68761 l -5.55605,17.12 -4.92108,2.63611 c -2.70659,1.44986 -5.10107,2.63786 -5.32107,2.64 -0.31735,0.003 -0.40001,-6.5606 -0.40001,-31.76227 z M 131.63536,150.4 c 0,-1.672 0.0539,-2.356 0.11986,-1.52 0.0659,0.836 0.0659,2.204 0,3.04 -0.0659,0.836 -0.11986,0.152 -0.11986,-1.52 z m 42.5207,-5.96818 c 0.89441,-3.16329 1.68576,-5.55182 1.83937,-5.55182 0.10297,0 0.64247,0.92322 1.1989,2.0516 l 1.01169,2.0516 -1.18301,0.55164 c -0.65065,0.30339 -1.59954,0.76249 -2.10865,1.02021 -0.86334,0.43705 -0.91438,0.42876 -0.7583,-0.12323 z m 17.30073,-8.53411 c -1.32028,-2.13625 -8.73678,-17.09723 -8.73678,-17.62431 0,-0.43287 5.52466,-17.6647 10.58672,-33.020786 l 1.59132,-4.827382 8.55098,-2.659482 c 4.70304,-1.462713 9.16298,-2.847504 9.91098,-3.077308 l 1.36,-0.417831 v 25.349719 25.34972 l -11.51812,5.64746 c -7.76806,3.80877 -11.59202,5.52789 -11.7451,5.2802 z M 128.44954,115.68 c 3.2e-4,-2.816 0.0494,-3.92516 0.10878,-2.46481 0.0594,1.46036 0.0591,3.76436 -6.4e-4,5.12 -0.0598,1.35565 -0.10845,0.16081 -0.10805,-2.65519 z M 230.72001,93.033155 V 69.266314 l 2.86821,-0.873159 c 1.57752,-0.480233 3.01847,-0.873155 3.20211,-0.873155 0.22952,0 0.30823,7.226419 0.25178,23.12 l -0.0821,23.12 -2.88,1.50834 c -1.584,0.82958 -2.988,1.51358 -3.12,1.52 -0.132,0.006 -0.24,-10.68342 -0.24,-23.755185 z m -60.66069,1.005536 c -1.33359,-2.66272 -2.30649,-4.951376 -2.16201,-5.085901 0.35408,-0.329676 8.83167,-2.89048 9.00273,-2.719427 C 177.11682,86.450147 173.0331,98.88 172.7451,98.88 c -0.1436,0 -1.3522,-2.178589 -2.68578,-4.841309 z"
         id="path209" />
    </g>
  </g>
</svg>
